<svg xmlns="http://www.w3.org/2000/svg" width="1080" height="620" viewBox="0 0 1080 620" role="img" aria-labelledby="title desc"><title id="title">Рисунок9.2. Отношение шансов рецидива</title><desc id="desc">Оценки восстановлены из логрангового O−E и дисперсии;99% интервалы классов и95% общий. Меньше1 — преимущество антидепрессанта.</desc><rect width="1080" height="620" fill="white"/><g font-family="Arial,sans-serif" font-size="22" fill="#17324d"><text x="25" y="38">Класс / испытаний</text><text x="340" y="38">Отношение шансов (антидепрессант : плацебо)</text><path d="M630 60V475" stroke="#6b7280" stroke-dasharray="5 5"/><text x="25" y="102">NARI / 2</text><line x1="370.30416111149333" y1="95" x2="464.3066255614808" y2="95" stroke="#10886c" stroke-width="3"/><circle cx="409.6057415558163" cy="95" r="5" fill="#10886c"/><text x="476.3066255614808" y="102" font-size="19">0.39 [0.28; 0.54]</text><text x="25" y="167">ИМАО / 4</text><line x1="279.18764323942275" y1="160" x2="345.2650041509868" y2="160" stroke="#10886c" stroke-width="3"/><circle cx="296.29653982091446" cy="160" r="5" fill="#10886c"/><text x="357.2650041509868" y="167" font-size="19">0.07 [0.03; 0.21]</text><text x="25" y="232">ТЦА / 15</text><line x1="331.7833923861271" y1="225" x2="397.5582937721278" y2="225" stroke="#10886c" stroke-width="3"/><circle cx="358.7749070189783" cy="225" r="5" fill="#10886c"/><text x="409.5582937721278" y="232" font-size="19">0.25 [0.17; 0.35]</text><text x="25" y="297">СИОЗС / 10</text><line x1="353.3800394605762" y1="290" x2="417.95059837189694" y2="290" stroke="#10886c" stroke-width="3"/><circle cx="381.06811752462824" cy="290" r="5" fill="#10886c"/><text x="429.95059837189694" y="297" font-size="19">0.31 [0.23; 0.41]</text><text x="25" y="362">Другие / 1</text><line x1="326.0107790684048" y1="355" x2="637.478166984959" y2="355" stroke="#10886c" stroke-width="3"/><circle cx="413.46685479042515" cy="355" r="5" fill="#10886c"/><text x="649.478166984959" y="362" font-size="19">0.40 [0.16; 1.02]</text><text x="25" y="427">Всего / 32</text><line x1="364.9302603281877" y1="420" x2="394.7935134971974" y2="420" stroke="#10886c" stroke-width="3"/><path d="M364.9302603281877 420L378.84245827597863 410L394.7935134971974 420L378.84245827597863 430Z" fill="#10886c"/><text x="406.7935134971974" y="427" font-size="19">0.30 [0.26; 0.35]</text><line x1="270" y1="475" x2="990" y2="475" stroke="#17324d"/><line x1="270" y1="475" x2="270" y2="484" stroke="#17324d"/><text x="270" y="511" text-anchor="middle">0</text><line x1="450" y1="475" x2="450" y2="484" stroke="#17324d"/><text x="450" y="511" text-anchor="middle">0,5</text><line x1="630" y1="475" x2="630" y2="484" stroke="#17324d"/><text x="630" y="511" text-anchor="middle">1</text><line x1="810" y1="475" x2="810" y2="484" stroke="#17324d"/><text x="810" y="511" text-anchor="middle">1,5</text><line x1="990" y1="475" x2="990" y2="484" stroke="#17324d"/><text x="990" y="511" text-anchor="middle">2</text><text x="435" y="545" text-anchor="middle" font-size="19">Антидепрессант лучше</text><text x="820" y="545" text-anchor="middle" font-size="19">Антидепрессант хуже</text><text x="25" y="581" font-size="18">Гетерогенность: χ²₄=18,6; P=0,001. Эффект: 2P&lt;0,00001. Снижение70% (SE4).</text></g></svg>